<svg xmlns="http://www.w3.org/2000/svg" width="24" height="24.001" viewBox="0 0 24 24.001"><defs><style>.a{fill:#fff;}</style></defs><path class="a" d="M34.5,12.709A3.585,3.585,0,0,0,31.406,11a.994.994,0,0,0,0,1.989,1.612,1.612,0,0,1,1.391.754,1.4,1.4,0,0,1,.069,1.357l-3.223,5.256c-.015.02-.024.044-.039.064a1.572,1.572,0,0,1-1.435.847h-.01a1.593,1.593,0,0,1-1.435-.833.448.448,0,0,0-.039-.064l-3.3-5.251a1.4,1.4,0,0,1,.054-1.367,1.6,1.6,0,0,1,1.4-.764.994.994,0,0,0,0-1.989,3.575,3.575,0,0,0-3.1,1.729,3.38,3.38,0,0,0-.093,3.35.447.447,0,0,0,.039.064l3.306,5.266a3.535,3.535,0,0,0,2.165,1.719v6.99c0,.671-.975,1.42-2.371,1.42s-2.371-.749-2.371-1.42V22.129c0-1.915-1.915-3.414-4.364-3.414s-4.364,1.5-4.364,3.414v5.848a3.6,3.6,0,1,0,4.692,3.443,3.605,3.605,0,0,0-2.718-3.453V22.129c0-.671.975-1.42,2.371-1.42s2.371.749,2.371,1.42v8.043a.421.421,0,0,0,0,.078c.088,1.847,1.974,3.277,4.359,3.277,2.449,0,4.364-1.5,4.364-3.414V23.138a3.571,3.571,0,0,0,2.219-1.763l3.228-5.261c.015-.02.024-.044.039-.064a3.374,3.374,0,0,0-.118-3.341ZM16.388,31.42a1.7,1.7,0,1,1-1.7-1.587A1.648,1.648,0,0,1,16.388,31.42Z" transform="translate(-11 -11)"/></svg>