<svg xmlns="http://www.w3.org/2000/svg" width="24.4" height="23.6" viewBox="0 0 24.4 23.6"><defs><style>.a{fill:#fff;}</style></defs><path class="a" d="M6.3,13.7a.9.9,0,0,1-.9-.9v-.3H5.1a.9.9,0,1,1,0-1.8h.3v-.3a.9.9,0,0,1,1.8,0v.3h.3a.9.9,0,1,1,0,1.8H7.2v.3A.9.9,0,0,1,6.3,13.7Z" transform="translate(0.2 -0.2)"/><path class="a" d="M18.2,23.8a3.092,3.092,0,0,1-3-2.3H8.4a3.212,3.212,0,0,1-3,2.3,3.092,3.092,0,0,1-3-2.3H1.6A1.793,1.793,0,0,1-.2,19.7V8A1.793,1.793,0,0,1,1.6,6.2H12V5.7a2.5,2.5,0,0,1,5,0v.4a1.828,1.828,0,0,1,1.5,1.3L20,12h1.5a2.689,2.689,0,0,1,2.7,2.7v5a1.793,1.793,0,0,1-1.8,1.8H21.3A3.21,3.21,0,0,1,18.2,23.8Zm0-4.5A1.387,1.387,0,0,0,17,20a1.23,1.23,0,0,0,.1,1.3,1.309,1.309,0,0,0,1.2.6,1.387,1.387,0,0,0,1.2-.7,1.23,1.23,0,0,0-.1-1.3A1.425,1.425,0,0,0,18.2,19.3Zm-12.8,0a1.387,1.387,0,0,0-1.2.7,1.23,1.23,0,0,0,.1,1.3,1.081,1.081,0,0,0,1.1.7,1.367,1.367,0,0,0,1.4-1.4c0-.2-.1-.4-.1-.6A1.889,1.889,0,0,0,5.4,19.3Zm17,.4V17H20.9a.9.9,0,0,1,0-1.8h1.5v-.6a.9.9,0,0,0-.9-.9H12.9v5.9h2.3a3.212,3.212,0,0,1,3-2.3,3.092,3.092,0,0,1,3,2.3h1.2Zm-11.3,0V7.9H1.6v7.3H3.1a.9.9,0,1,1,0,1.8H1.6v2.6h.7a3.212,3.212,0,0,1,3-2.3,3.092,3.092,0,0,1,3,2.3h2.8Zm7-7.7L16.8,8H12.9v4.1h5.2ZM15.2,6.1V5.7a.7.7,0,0,0-1.4,0v.4Z" transform="translate(0.2 -0.2)"/><path class="a" d="M14.5,2.2a.9.9,0,0,1-.9-.9V1.1a.9.9,0,1,1,1.8,0v.2A.9.9,0,0,1,14.5,2.2Z" transform="translate(0.2 -0.2)"/><path class="a" d="M16.7,3.3A.908.908,0,0,1,16,3a.935.935,0,0,1,.1-1.3l.2-.1a1.421,1.421,0,0,1,.6-.2.908.908,0,0,1,.7.3.844.844,0,0,1,.2.7.6.6,0,0,1-.3.6l-.2.1A.845.845,0,0,1,16.7,3.3Z" transform="translate(0.2 -0.2)"/><path class="a" d="M12.3,3.3a1.421,1.421,0,0,1-.6-.2L11.5,3a.935.935,0,0,1-.1-1.3.908.908,0,0,1,.7-.3,1.421,1.421,0,0,1,.6.2l.2.1A.823.823,0,0,1,13,2.9.755.755,0,0,1,12.3,3.3Z" transform="translate(0.2 -0.2)"/></svg>