<svg xmlns="http://www.w3.org/2000/svg" width="22" height="22" viewBox="0 0 22 22"><defs><style>.a{fill:#fff;}</style></defs><path class="a" d="M11,145.682a.94.94,0,0,0,.933-.942,5.81,5.81,0,0,0-5.965-5.64A5.839,5.839,0,0,0,0,144.74a.94.94,0,0,0,.933.942.937.937,0,0,0,.933-.942,3.965,3.965,0,0,1,4.1-3.762,3.965,3.965,0,0,1,4.1,3.762A.926.926,0,0,0,11,145.682Z" transform="translate(0 -132.898)"/><path class="a" d="M69.48,7.93a2.967,2.967,0,0,0,2.98-2.915,2.981,2.981,0,0,0-5.96,0A2.961,2.961,0,0,0,69.48,7.93Zm0-3.947A1.09,1.09,0,0,1,70.6,5.015a1.121,1.121,0,0,1-2.235,0A1.09,1.09,0,0,1,69.48,3.983Z" transform="translate(-63.515 -2.1)"/><path class="a" d="M230.164,342.7a5.839,5.839,0,0,0-5.964,5.64.934.934,0,1,0,1.867,0,4.117,4.117,0,0,1,8.2,0,.934.934,0,1,0,1.867,0A5.821,5.821,0,0,0,230.164,342.7Z" transform="translate(-214.138 -327.282)"/><path class="a" d="M290.7,203.46a2.98,2.98,0,1,0,2.98-2.96A2.976,2.976,0,0,0,290.7,203.46Zm4.1-.05a1.118,1.118,0,1,1-1.118-1.082A1.1,1.1,0,0,1,294.8,203.411Z" transform="translate(-277.653 -191.519)"/><path class="a" d="M11.207,305.506c-3.308,0-4.789-1.707-5.386-2.775l.283.136a.854.854,0,0,0,1.144-.407.868.868,0,0,0-.4-1.154l-2.1-1.009A.854.854,0,0,0,3.6,300.7l-1.005,2.114a.871.871,0,0,0,.4,1.154.894.894,0,0,0,1.144-.407l.081-.172a7.094,7.094,0,0,0,1.005,1.444,7.714,7.714,0,0,0,5.978,2.4.867.867,0,0,0,0-1.734Z" transform="translate(-2.397 -286.715)"/><path class="a" d="M262.307,26.842c3.514,0,5.085,1.815,5.727,2.947l-.3-.145a.9.9,0,0,0-1.216.435.919.919,0,0,0,.431,1.227l2.231,1.077a.9.9,0,0,0,1.216-.435l1.068-2.25a.925.925,0,0,0-.431-1.227.948.948,0,0,0-1.216.435l-.085.181a7.258,7.258,0,0,0-1.068-1.53A8.18,8.18,0,0,0,262.311,25a.921.921,0,0,0,0,1.842Z" transform="translate(-249.668 -23.964)"/></svg>
